<svg width="120" height="120" viewBox="0 0 120 120" fill="none" xmlns="http://www.w3.org/2000/svg">
<path fill-rule="evenodd" clip-rule="evenodd" d="M15.275 54.428V114.557H44.746L44.66 67.6962C44.66 57.9632 40.3598 54.3836 31.1572 54.3836L15.275 54.428ZM10 48.9846L31.1429 48.8515C43.9577 48.7627 50.0067 55.3599 50.021 67.8145V120H10V48.9994V48.9846ZM15.275 5.42859H44.746V22.5279C44.746 32.5567 40.5318 36.9055 31.0426 36.9055H15.275V5.42859ZM10 0V42.3785H31.0999C43.5706 42.3785 50.021 36.4618 50.021 22.5131V0H10ZM109 49.384L108.857 71.8675H81.8941C79.916 71.8675 78.8839 73.1692 78.8982 75.8021V120H57.139V68.3914C57.5116 54.8126 63.5177 49.3248 76.4758 49.2952L109 49.4431V49.384ZM61.7689 5.42859H103.711V36.9203H75.9024C66.0118 36.9203 61.7689 31.6692 61.7689 22.1285V5.42859ZM56.5083 0V22.5279C56.5083 36.6245 63.274 42.4524 75.8307 42.4524H109V0H56.5083Z" fill="#1F3153"/>
</svg>
